<svg version="1.2" baseProfile="tiny" xmlns="http://www.w3.org/2000/svg" viewBox="0 0 202.5 52.8"><path d="M124 34.2c-1.1 0-2.1-.2-3-.6-.9-.4-1.7-.9-2.4-1.6-.7-.7-1.2-1.5-1.6-2.4-.4-.9-.6-1.9-.6-2.9v-.1c0-1 .2-2 .6-2.9.4-.9.9-1.7 1.6-2.4.7-.7 1.5-1.2 2.4-1.6.9-.4 2-.6 3.1-.6 1.5 0 2.7.3 3.7.9 1 .6 1.8 1.4 2.4 2.3l-3.4 2.6c-.4-.5-.7-.8-1.1-1.1-.4-.3-.9-.4-1.5-.4-.4 0-.8.1-1.1.3-.3.2-.6.4-.9.7-.2.3-.4.6-.6 1-.1.4-.2.8-.2 1.2v.1c0 .5.1.9.2 1.3s.3.7.6 1c.2.3.5.5.9.7.4.2.7.3 1.2.3.6 0 1.1-.1 1.5-.4.4-.3.8-.6 1.2-1.1l3.4 2.4c-.7 1-1.5 1.8-2.5 2.4-1 .6-2.3.9-3.9.9zm16.6 0c-1.2 0-2.2-.2-3.2-.6-1-.4-1.8-.9-2.5-1.6-.7-.7-1.3-1.5-1.6-2.4-.4-.9-.6-1.9-.6-2.9v-.1c0-1 .2-2 .6-2.9.4-.9.9-1.7 1.7-2.4.7-.7 1.6-1.2 2.5-1.6 1-.4 2-.6 3.2-.6 1.2 0 2.2.2 3.2.6 1 .4 1.8.9 2.5 1.6.7.7 1.3 1.5 1.7 2.4.4.9.6 1.9.6 2.9v.1c0 1-.2 2-.6 2.9-.4.9-1 1.7-1.7 2.4s-1.6 1.2-2.5 1.6c-1.1.4-2.2.6-3.3.6zm0-4.3c.5 0 .9-.1 1.2-.3.4-.2.7-.4.9-.7.3-.3.5-.6.6-1 .1-.4.2-.8.2-1.2v-.1c0-.4-.1-.9-.2-1.2-.2-.4-.4-.7-.6-1-.3-.3-.6-.5-1-.7-.4-.2-.8-.3-1.2-.3-.5 0-.9.1-1.2.2-.4.2-.7.4-.9.7-.3.3-.5.6-.6 1-.1.4-.2.8-.2 1.2v.1c0 .4.1.9.2 1.2.2.4.4.7.6 1 .3.3.6.5 1 .7.4.3.8.4 1.2.4zm16.7 4.3c-.8 0-1.7-.2-2.4-.5-.8-.3-1.4-.8-2-1.5-.6-.6-1-1.4-1.4-2.3-.3-.9-.5-2-.5-3.1v-.1c0-1.2.2-2.2.5-3.2.3-.9.8-1.7 1.4-2.4.6-.6 1.3-1.1 2-1.5.8-.3 1.6-.5 2.4-.5 1.1 0 2 .2 2.7.6.7.4 1.3.9 1.8 1.4v-6.8h5.1v19.4h-5.1v-1.9c-.5.6-1.1 1.1-1.8 1.6-.7.6-1.6.8-2.7.8zm1.6-4.2c.4 0 .8-.1 1.1-.2.4-.2.7-.4.9-.7.3-.3.5-.6.6-1 .1-.4.2-.8.2-1.3v-.1c0-.5-.1-.9-.2-1.3-.2-.4-.4-.7-.6-1-.3-.3-.6-.5-.9-.7-.4-.2-.7-.2-1.1-.2-.4 0-.8.1-1.1.2-.4.2-.7.4-.9.7-.3.3-.5.6-.6 1-.2.4-.2.8-.2 1.3v.1c0 .5.1.9.2 1.3.2.4.4.7.6 1 .3.3.6.5.9.7.3.1.6.2 1.1.2zm18.6 4.2c-1.1 0-2.2-.2-3.1-.5-.9-.4-1.8-.9-2.4-1.5-.7-.6-1.2-1.4-1.6-2.4-.4-.9-.6-1.9-.6-3.1v-.1c0-1 .2-2 .5-2.9.4-.9.9-1.7 1.5-2.4.7-.7 1.4-1.2 2.3-1.6.9-.4 1.9-.6 2.9-.6 1.2 0 2.3.2 3.2.6.9.4 1.7 1 2.3 1.7.6.7 1 1.6 1.3 2.5.3.9.4 2 .4 3v1h-9.6c.2.8.6 1.4 1.1 1.8.5.4 1.2.6 2 .6.6 0 1.2-.1 1.7-.3.5-.2 1-.6 1.5-1.1l2.8 2.3c-.7.9-1.5 1.6-2.6 2.1-1 .6-2.2.9-3.6.9zm2-8.7c-.1-.8-.4-1.4-.8-1.9s-1-.7-1.7-.7-1.2.2-1.6.7c-.4.5-.7 1.1-.9 1.9h5zm14 8.7c-1.2 0-2.4-.2-3.6-.5-1.2-.3-2.2-.9-3.2-1.6l1.9-3.1c.8.6 1.7 1 2.5 1.2.9.3 1.7.4 2.4.4.9 0 1.3-.3 1.3-.8v-.1c0-.3-.2-.5-.6-.7-.4-.2-1-.3-1.7-.6-.7-.2-1.4-.4-2-.6-.6-.2-1.2-.5-1.6-.9-.5-.3-.8-.8-1.1-1.3-.3-.5-.4-1.1-.4-1.8v.2c0-.8.2-1.4.4-2 .3-.6.7-1.1 1.2-1.5.5-.4 1.1-.7 1.8-.9.7-.2 1.5-.3 2.3-.3 1.1 0 2.1.1 3.1.4 1 .3 2 .7 2.8 1.2l-1.7 3.2c-.7-.4-1.5-.7-2.3-1-.8-.2-1.4-.4-2-.4-.4 0-.7.1-.9.2-.2.1-.3.3-.3.5v.1c0 .3.2.5.6.7.4.2 1 .4 1.7.6.7.2 1.4.4 2 .7.6.2 1.2.5 1.6.9.5.3.8.8 1.1 1.3.3.5.4 1.1.4 1.8v.1c0 .8-.1 1.5-.4 2.1-.3.6-.7 1.1-1.2 1.5-.5.4-1.1.7-1.9.9-.5 0-1.3.1-2.2.1zm-76.1 6.3h.9l2.6 7.4 2.6-7.5h.6l2.6 7.5 2.6-7.4h.9L127 49h-.7l-2.5-7.3-2.5 7.3h-.7l-3.2-8.5zm15.3-3.6h.8v5.2c.3-.5.7-.9 1.2-1.3.5-.3 1.1-.5 1.9-.5.5 0 1 .1 1.4.3.4.2.8.4 1.1.7.3.3.5.7.7 1.1.1.4.2.9.2 1.4V49h-.8v-5c0-.9-.2-1.6-.7-2.1-.5-.5-1.1-.8-2-.8-.4 0-.8.1-1.2.2-.4.2-.7.4-.9.6-.3.3-.5.6-.6 1-.2.4-.2.8-.2 1.2V49h-.8V36.9zM147 49.2c-.6 0-1.2-.1-1.7-.4-.5-.2-1-.6-1.4-1-.4-.4-.7-.9-.9-1.4-.2-.5-.3-1.1-.3-1.7 0-.6.1-1.2.3-1.7.2-.5.5-1 .9-1.4.4-.4.9-.7 1.4-1 .5-.2 1.1-.4 1.7-.4.6 0 1.2.1 1.7.4.5.2 1 .6 1.4 1 .4.4.7.9.9 1.4.2.5.3 1.1.3 1.7 0 .6-.1 1.2-.3 1.7-.2.5-.5 1-.9 1.4-.4.4-.9.7-1.4 1-.5.3-1.1.4-1.7.4zm0-.8c.5 0 1-.1 1.4-.3.4-.2.8-.5 1.1-.8.3-.3.5-.7.7-1.2.2-.4.3-.9.3-1.4 0-.5-.1-1-.3-1.4-.2-.4-.4-.8-.7-1.2-.3-.3-.7-.6-1.1-.8-.4-.2-.9-.3-1.4-.3-.5 0-1 .1-1.4.3-.4.2-.8.5-1.1.8-.3.3-.5.7-.7 1.1-.2.4-.3.9-.3 1.4 0 .5.1 1 .3 1.4.2.4.4.8.7 1.2.3.3.7.6 1.1.8.4.3.9.4 1.4.4zm7.3-11.5h.8V49h-.8V36.9zm7.9 12.3c-.6 0-1.1-.1-1.6-.3-.5-.2-.9-.5-1.3-.9s-.7-.9-.9-1.4c-.2-.5-.3-1.1-.3-1.8 0-.6.1-1.2.3-1.7.2-.5.5-1 .9-1.4.4-.4.8-.7 1.3-.9.5-.2 1-.3 1.6-.3.6 0 1.1.1 1.6.3.5.2.9.5 1.2.9.3.4.6.9.8 1.4.2.5.3 1.1.3 1.8v.4h-7c0 .5.2 1 .3 1.4.2.4.5.8.7 1 .3.3.6.5 1 .7.4.1.8.2 1.2.2.7 0 1.2-.1 1.7-.4.5-.3.9-.6 1.2-.9l.6.5c-.4.5-.9.9-1.5 1.2-.6 0-1.3.2-2.1.2zm2.9-4.9c0-.4-.1-.8-.3-1.2-.1-.4-.3-.7-.6-1-.2-.3-.6-.5-.9-.7-.4-.2-.8-.3-1.3-.3-.4 0-.8.1-1.2.3-.4.2-.7.4-1 .7-.3.3-.5.6-.7 1-.2.4-.3.8-.3 1.3h6.3zm6.4 4.8c-.6 0-1.2-.1-1.9-.3-.6-.2-1.2-.5-1.6-.9l.5-.7c.5.4 1 .6 1.5.8.5.2 1 .3 1.6.3.6 0 1.1-.1 1.5-.4.4-.3.6-.7.6-1.2 0-.2-.1-.5-.2-.6-.1-.2-.3-.3-.5-.5-.2-.1-.5-.2-.7-.3-.3-.1-.5-.2-.8-.3-.3-.1-.7-.2-1-.3-.3-.1-.7-.3-.9-.4-.3-.2-.5-.4-.7-.6-.2-.3-.3-.6-.3-.9 0-.3.1-.7.2-.9.1-.3.3-.5.6-.7.2-.2.5-.4.9-.5.3-.1.7-.2 1.1-.2.5 0 1 .1 1.6.3.5.2 1 .4 1.4.7l-.4.7c-.4-.2-.8-.5-1.3-.6-.4-.2-.9-.2-1.4-.2-.6 0-1.1.1-1.4.4-.4.3-.5.6-.5 1 0 .2.1.4.2.6.1.2.3.3.5.4.2.1.5.2.8.3l.9.3c.3.1.7.2 1 .3.3.1.6.3.9.4.3.2.5.4.6.7.2.3.2.6.2.9 0 .4-.1.7-.2 1-.2.3-.4.6-.6.8-.3.2-.6.4-.9.5-.5.1-.9.1-1.3.1zm8.5.1c-.4 0-.8-.1-1.2-.2-.4-.1-.7-.3-1-.5-.3-.2-.6-.5-.8-.8-.2-.3-.3-.7-.3-1.2 0-.4.1-.8.3-1.2.2-.3.4-.6.8-.9.3-.2.7-.4 1.2-.5.5-.1 1-.2 1.5-.2.6 0 1.1 0 1.5.1.4.1.9.2 1.3.3v-.4c0-.9-.2-1.5-.7-1.9-.5-.4-1.2-.6-2.1-.6-.5 0-1 .1-1.4.2-.4.1-.8.3-1.2.5l-.3-.7c.5-.2.9-.4 1.4-.5.5-.1 1-.2 1.6-.2 1.2 0 2.1.3 2.7.9.6.6.9 1.4.9 2.4V49h-.8v-1.4c-.1.2-.3.4-.5.6-.2.2-.4.4-.7.5-.3.1-.6.3-.9.4-.6 0-.9.1-1.3.1zm0-.8c.4 0 .8-.1 1.2-.2.4-.1.7-.3 1-.5.3-.2.5-.5.7-.8.2-.3.3-.7.3-1.1v-1l-1.2-.3c-.5-.1-1-.1-1.6-.1-.9 0-1.6.2-2.1.5-.5.4-.7.8-.7 1.4 0 .3.1.6.2.8.1.2.3.4.5.6.2.2.5.3.8.4.3.3.6.3.9.3zm7.4-11.5h.8V49h-.8V36.9zm7.9 12.3c-.6 0-1.1-.1-1.6-.3-.5-.2-.9-.5-1.3-.9s-.7-.9-.9-1.4c-.2-.5-.3-1.1-.3-1.8 0-.6.1-1.2.3-1.7.2-.5.5-1 .8-1.4.4-.4.8-.7 1.3-.9.5-.2 1-.3 1.6-.3.6 0 1.1.1 1.6.3.5.2.9.5 1.2.9.3.4.6.9.8 1.4.2.5.3 1.1.3 1.8v.4h-7c0 .5.1 1 .3 1.4.2.4.4.8.7 1 .3.3.6.5 1 .7.4.1.8.2 1.2.2.7 0 1.2-.1 1.7-.4.5-.3.9-.6 1.2-.9l.6.5c-.4.5-.9.9-1.5 1.2-.5 0-1.2.2-2 .2zm2.9-4.9c0-.4-.1-.8-.3-1.2-.1-.4-.3-.7-.6-1-.2-.3-.6-.5-.9-.7-.4-.2-.8-.3-1.3-.3-.4 0-.8.1-1.2.3-.4.2-.7.4-1 .7-.3.3-.5.6-.7 1-.2.4-.3.8-.3 1.3h6.3z" fill="#333"/><path fill="#18829B" d="M18.5 4.2h15v15h-15z"/><path fill="#176A78" d="M18.5 34.2h15v15h-15z"/><path fill="#4DBBCE" d="M3.5 19.2h15v15h-15z"/><path fill="#48FFB0" d="M33.5 19.2h15v15h-15z"/><path fill="#44E099" d="M48.5 34.2h15v15h-15z"/><path fill="#23E8B4" d="M63.5 19.2h15v15h-15z"/><path fill="#4AFFC7" d="M78.5 34.2h15v15h-15z"/><path fill="#48FFB0" d="M93.5 19.2h15v15h-15z"/></svg>